<!DOCTYPE svg PUBLIC "-//W3C//DTD SVG 20010904//EN" "http://www.w3.org/TR/2001/REC-SVG-20010904/DTD/svg10.dtd">
<svg version="1.0" xmlns="http://www.w3.org/2000/svg" width="30px" height="30px" viewBox="0 0 7700 7700" preserveAspectRatio="xMidYMid meet">
<g id="layer101" fill="#ee2200" stroke="none">
 <path d="M1525 7021 c-57 -27 -829 -802 -850 -855 -11 -26 -14 -52 -10 -80 6 -39 72 -107 1103 -1138 l1097 -1098 -1097 -1097 c-1031 -1032 -1097 -1100 -1103 -1139 -4 -28 -1 -54 10 -80 11 -28 133 -157 413 -438 427 -428 446 -444 525 -431 40 6 102 66 1140 1103 l1097 1097 1098 -1097 c1031 -1031 1099 -1097 1138 -1103 28 -4 54 -1 80 10 28 11 157 133 438 413 428 427 444 446 431 525 -6 40 -66 102 -1103 1140 l-1097 1097 1097 1098 c1037 1037 1097 1099 1103 1139 13 79 -3 98 -431 525 -281 280 -410 402 -438 413 -26 11 -52 14 -80 10 -39 -6 -107 -72 -1139 -1103 l-1097 -1097 -1093 1093 c-1102 1102 -1113 1113 -1177 1112 -8 0 -33 -9 -55 -19z"/>
 </g>

</svg>