<!DOCTYPE svg PUBLIC "-//W3C//DTD SVG 20010904//EN" "http://www.w3.org/TR/2001/REC-SVG-20010904/DTD/svg10.dtd">
<svg version="1.0" xmlns="http://www.w3.org/2000/svg" width="3px" height="3px" viewBox="0 0 1520 1520" preserveAspectRatio="xMidYMid meet">
<g id="layer101" fill="#000000" stroke="none">
 <path d="M605 1509 c-88 -21 -153 -45 -208 -76 -33 -18 -61 -33 -63 -33 -7 0 -67 -53 -122 -107 -29 -29 -70 -81 -92 -116 -22 -34 -44 -68 -50 -74 -6 -7 -10 -14 -9 -15 3 -4 -32 -109 -39 -123 -10 -16 -12 -43 -18 -176 -5 -107 -3 -138 15 -210 55 -221 195 -398 394 -498 114 -57 215 -81 347 -81 363 0 668 243 745 594 24 108 17 303 -15 396 -82 244 -254 416 -500 500 -52 18 -93 23 -205 26 -77 2 -158 -1 -180 -7z"/>
 </g>

</svg>