<!DOCTYPE svg PUBLIC "-//W3C//DTD SVG 20010904//EN" "http://www.w3.org/TR/2001/REC-SVG-20010904/DTD/svg10.dtd">
<svg version="1.0" xmlns="http://www.w3.org/2000/svg" width="50px" height="30px" viewBox="0 0 5730 2350" preserveAspectRatio="xMidYMid meet">
<g id="layer101" fill="#3f3f3f" stroke="none">
 <path d="M1040 2341 c-72 -22 -119 -63 -145 -123 -18 -44 -20 -119 -3 -136 30 -30 78 0 78 49 0 48 27 89 73 110 34 15 66 19 165 19 l122 0 0 -149 c0 -111 3 -151 13 -154 6 -2 2 -3 -9 -1 -30 5 -235 -23 -387 -52 -141 -27 -226 -52 -332 -94 -49 -20 -95 -30 -155 -34 -259 -17 -460 -140 -460 -281 0 -20 8 -53 17 -72 43 -92 278 -220 533 -289 81 -23 158 -61 519 -255 l424 -229 179 0 178 0 150 -125 150 -125 145 0 145 0 0 -123 0 -123 -35 -13 c-29 -10 -64 -10 -188 1 -93 8 -303 13 -542 13 -343 0 -398 -2 -454 -18 -72 -20 -91 -31 -91 -57 0 -25 18 -37 86 -56 118 -33 821 -29 1122 6 69 8 80 7 104 -10 33 -24 84 -26 96 -4 11 20 47 21 237 4 216 -20 894 -21 980 -2 72 17 105 36 105 62 0 26 -33 45 -105 62 -82 18 -771 18 -982 0 -123 -11 -159 -11 -187 -1 l-35 13 -3 125 -3 126 147 0 c132 0 149 2 174 21 54 40 68 70 72 150 l4 74 67 0 c39 0 90 8 126 20 49 16 237 34 984 95 l924 76 43 -23 c41 -21 47 -31 154 -250 l112 -228 189 0 c114 0 189 4 189 10 0 5 -58 128 -128 272 l-128 263 25 50 c34 68 36 179 3 246 -52 108 -142 164 -262 164 -105 0 -185 -41 -241 -122 l-15 -22 -285 73 c-255 67 -295 80 -389 130 -287 150 -877 346 -1405 465 l-170 38 -3 176 -2 177 224 0 c213 0 226 1 236 19 14 27 13 37 -6 55 -14 14 -124 16 -1067 15 -579 0 -1063 -4 -1077 -8z m1630 -251 c0 -93 -3 -170 -6 -170 -4 0 -59 9 -123 19 -258 43 -299 46 -646 45 -187 -1 -376 -6 -420 -11 l-80 -9 3 148 3 148 635 0 634 0 0 -170z"/>
 </g>
<g id="layer102" fill="#777777" stroke="none">
 <path d="M1560 1979 c-74 -5 -154 -13 -178 -19 -24 -6 -47 -8 -52 -5 -13 8 -228 -21 -383 -51 -141 -27 -226 -52 -332 -94 -49 -20 -95 -30 -155 -34 -259 -17 -460 -140 -460 -281 0 -20 8 -53 17 -72 43 -92 278 -220 533 -289 81 -23 158 -61 519 -255 l424 -229 179 0 178 0 150 -125 149 -124 345 2 c331 2 346 3 372 23 54 40 68 70 72 150 l4 74 67 0 c39 0 90 8 126 20 49 16 237 34 984 95 l924 76 43 -23 c41 -21 47 -31 154 -250 l112 -228 189 0 c114 0 189 4 189 10 0 5 -58 128 -128 272 l-128 263 25 50 c34 68 36 179 3 246 -52 108 -142 164 -262 164 -105 0 -185 -41 -241 -122 l-15 -22 -285 73 c-255 67 -295 80 -389 130 -280 146 -841 334 -1363 455 -97 23 -194 43 -215 45 -20 2 -68 11 -107 19 -276 61 -656 81 -1065 56z"/>
 <path d="M1295 149 c-125 -15 -184 -47 -159 -86 15 -24 77 -42 189 -55 172 -18 945 1 1064 28 l24 5 -23 16 c-17 12 -21 22 -16 43 l5 28 -77 6 c-297 26 -849 34 -1007 15z"/>
 <path d="M2910 150 c-248 -16 -302 -22 -291 -33 17 -17 13 -45 -10 -60 -19 -14 -20 -15 -2 -20 104 -31 1028 -45 1148 -19 71 16 105 36 105 61 0 27 -22 42 -88 59 -66 17 -661 25 -862 12z"/>
 </g>
<g id="layer103" fill="#e75938" stroke="none">
 <path d="M1560 1979 c-74 -5 -154 -13 -178 -19 -24 -6 -47 -8 -52 -5 -13 8 -228 -21 -383 -51 -141 -27 -226 -52 -332 -94 -49 -20 -95 -30 -155 -34 -174 -11 -326 -70 -404 -157 -25 -28 -46 -57 -46 -65 0 -12 178 -14 1175 -14 l1175 0 0 -52 0 -53 -1162 3 c-640 1 -1169 0 -1176 -3 -22 -8 21 -59 91 -109 110 -78 261 -144 437 -192 81 -23 158 -61 519 -255 l424 -229 179 0 178 0 150 -125 149 -124 345 2 c331 2 346 3 372 23 54 40 68 70 72 150 l4 74 67 0 c39 0 90 8 126 20 49 16 237 34 984 95 l924 76 43 -23 c41 -21 47 -31 154 -250 l112 -228 189 0 c114 0 189 4 189 10 0 5 -58 128 -128 272 l-128 263 25 50 c34 68 36 179 3 246 -52 108 -142 164 -262 164 -105 0 -185 -41 -241 -122 l-15 -22 -285 73 c-242 63 -297 81 -369 120 l-85 46 -687 0 -688 0 0 50 0 50 550 0 c303 0 550 4 550 8 0 12 -424 153 -650 216 -209 58 -527 134 -588 140 -20 2 -68 11 -107 19 -276 61 -656 81 -1065 56z"/>
 <path d="M1295 149 c-125 -15 -184 -47 -159 -86 15 -24 77 -42 189 -55 172 -18 989 3 1064 28 11 4 9 8 -7 20 -24 16 -29 43 -11 61 11 11 -41 17 -301 33 -186 11 -677 11 -775 -1z"/>
 <path d="M2905 150 c-66 -4 -157 -11 -202 -15 l-82 -7 5 -28 c5 -21 1 -31 -16 -43 -20 -14 -20 -15 -3 -20 104 -31 1028 -45 1148 -19 71 16 105 36 105 61 0 27 -22 42 -88 59 -66 17 -661 26 -867 12z"/>
 </g>
<g id="layer104" fill="#dedddd" stroke="none">
 <path d="M2397 1620 c-25 -20 -40 -20 -1192 -20 -1100 0 -1169 -1 -1181 -17 -34 -45 -75 -43 1161 -43 l1175 0 0 -314 0 -314 31 -26 c30 -26 31 -26 220 -26 l189 0 32 29 33 29 3 311 3 311 550 0 c302 0 549 3 549 8 0 4 -29 17 -64 30 -64 22 -72 22 -561 22 -482 0 -498 1 -522 20 -24 18 -41 20 -213 20 -172 0 -189 -2 -213 -20z"/>
 <path d="M5176 1236 c-66 -25 -66 -30 2 -98 l62 -63 60 60 c33 33 60 63 60 67 0 13 -59 38 -102 43 -25 3 -59 -1 -82 -9z"/>
 <path d="M719 1203 c12 -16 31 -40 43 -55 13 -14 184 -113 386 -221 l362 -195 0 249 0 249 -406 0 -405 0 20 -27z"/>
 <path d="M1560 980 l0 -250 340 0 340 0 -2 248 -3 247 -337 3 -338 2 0 -250z"/>
 <path d="M5072 1146 c-28 -63 -23 -143 13 -191 15 -19 17 -17 72 38 l58 57 -60 60 c-33 33 -62 60 -66 60 -3 0 -11 -11 -17 -24z"/>
 <path d="M5325 1110 l-60 -60 58 -57 c54 -55 57 -57 71 -38 38 51 40 165 4 201 -12 12 -23 4 -73 -46z"/>
 <path d="M5182 967 c-49 -49 -52 -55 -36 -68 11 -9 42 -14 94 -14 52 0 83 5 94 14 16 13 13 19 -36 68 -29 29 -55 53 -58 53 -3 0 -29 -24 -58 -53z"/>
 <path d="M1295 149 c-125 -15 -184 -47 -159 -86 15 -24 77 -42 189 -55 172 -18 989 3 1064 28 11 4 9 8 -7 20 -24 16 -29 43 -11 61 11 11 -41 17 -301 33 -186 11 -677 11 -775 -1z"/>
 <path d="M2905 150 c-66 -4 -157 -11 -202 -15 l-82 -7 5 -28 c5 -21 1 -31 -16 -43 -20 -14 -20 -15 -3 -20 104 -31 1028 -45 1148 -19 71 16 105 36 105 61 0 27 -22 42 -88 59 -66 17 -661 26 -867 12z"/>
 </g>

</svg>