<!DOCTYPE svg PUBLIC "-//W3C//DTD SVG 20010904//EN" "http://www.w3.org/TR/2001/REC-SVG-20010904/DTD/svg10.dtd">
<svg version="1.0" xmlns="http://www.w3.org/2000/svg" width="3px" height="3px" viewBox="0 0 1520 1520" preserveAspectRatio="xMidYMid meet">
<g id="layer101" fill="#ff0000" stroke="none">
 <path d="M570 1500 c-41 -11 -82 -22 -90 -24 -8 -2 -44 -20 -78 -40 -35 -20 -66 -36 -68 -36 -7 0 -67 -53 -122 -107 -29 -29 -70 -81 -92 -116 -22 -34 -44 -68 -50 -74 -6 -7 -10 -14 -9 -15 3 -4 -32 -109 -39 -123 -10 -16 -12 -43 -18 -176 -5 -107 -3 -138 15 -210 55 -221 195 -398 394 -498 114 -57 215 -81 347 -81 363 0 668 243 745 594 24 108 17 303 -15 396 -82 244 -254 416 -500 500 -96 33 -315 38 -420 10z"/>
 </g>

</svg>