<!DOCTYPE svg PUBLIC "-//W3C//DTD SVG 20010904//EN" "http://www.w3.org/TR/2001/REC-SVG-20010904/DTD/svg10.dtd">
<svg version="1.0" xmlns="http://www.w3.org/2000/svg" width="200px" height="200px" viewBox="0 0 6250 6240" preserveAspectRatio="xMidYMid meet">
<g id="layer101" fill="#d2ab5d" stroke="none">
 <path d="M1882 4727 l-1243 -422 0 -235 0 -235 91 -30 90 -29 2 -1184 3 -1184 1153 -390 1154 -389 1026 347 c565 191 1087 367 1160 391 l132 45 0 1183 0 1183 85 29 85 28 3 235 2 236 -1240 418 c-682 231 -1244 420 -1250 422 -5 1 -569 -188 -1253 -419z m-855 -564 c62 -21 113 -40 113 -43 0 -3 -54 -25 -120 -48 l-120 -41 0 84 c0 47 3 85 7 85 4 0 58 -17 120 -37z m4333 -43 c0 -44 -4 -80 -8 -80 -25 0 -234 79 -222 84 65 25 207 74 218 75 9 1 12 -21 12 -79z"/>
 </g>
<g id="layer102" fill="#dfcca8" stroke="none">
 <path d="M3106 5128 c-8 -13 -62 -144 -121 -293 -169 -428 -266 -669 -274 -678 -4 -4 -33 59 -65 140 -32 82 -61 157 -66 168 -4 11 -45 113 -90 228 -76 192 -96 227 -114 198 -6 -9 30 -103 184 -486 116 -288 126 -319 113 -357 -6 -20 -81 -209 -166 -420 -84 -210 -166 -416 -181 -455 -15 -40 -31 -75 -36 -78 -4 -3 -25 39 -46 92 -21 54 -109 277 -197 497 l-159 398 72 182 c68 172 77 195 99 249 5 12 21 54 36 92 15 39 33 84 40 100 29 64 45 108 41 112 -3 3 -14 2 -25 -2 -15 -4 -45 -71 -129 -283 -60 -152 -118 -299 -127 -325 -10 -26 -21 -50 -25 -52 -5 -3 -126 288 -185 448 -17 46 -40 61 -51 34 -5 -13 110 -315 192 -505 8 -18 14 -39 14 -46 0 -7 -89 -236 -198 -509 l-197 -496 -199 500 c-185 464 -200 499 -220 493 -31 -9 -40 -22 -65 -89 -13 -33 -27 -69 -31 -80 -90 -216 -111 -279 -108 -328 l3 -51 78 199 c42 110 88 222 100 249 l23 49 129 -324 c70 -178 159 -404 198 -501 l70 -177 -198 -496 c-109 -272 -202 -492 -206 -488 -4 5 -46 107 -94 228 -113 288 -104 269 -104 209 -1 -28 8 -73 18 -100 11 -27 52 -131 91 -232 l72 -183 -92 -227 c-79 -196 -91 -234 -88 -275 3 -48 6 -43 102 197 54 135 100 246 101 246 3 0 109 -266 211 -527 35 -92 52 -123 68 -127 11 -3 21 -4 23 -2 1 1 -33 92 -76 202 -173 436 -201 509 -201 522 0 7 65 176 145 375 80 199 169 421 198 493 l52 131 46 -116 c278 -692 349 -872 349 -883 0 -13 -45 -129 -222 -573 -45 -115 -83 -214 -83 -220 0 -5 8 -10 19 -10 14 0 30 29 71 135 29 74 95 240 145 368 51 128 94 231 97 228 2 -2 92 -222 198 -488 154 -381 199 -485 216 -493 17 -7 24 -6 31 5 6 8 96 233 202 499 106 266 196 480 199 474 3 -5 94 -230 201 -500 l195 -492 -45 -110 c-24 -61 -44 -115 -44 -121 0 -5 8 -10 19 -10 14 0 26 21 51 85 18 47 36 88 39 90 4 2 22 -37 41 -86 26 -65 39 -89 52 -89 26 0 23 15 -23 126 -22 54 -41 106 -41 114 -1 8 47 137 107 285 59 149 146 367 193 485 47 118 88 218 92 222 3 5 93 -211 199 -480 107 -268 198 -491 202 -496 5 -6 17 -5 30 0 17 8 57 96 181 405 87 217 174 438 194 492 20 54 38 97 39 95 2 -2 38 -91 80 -198 42 -107 109 -275 147 -372 65 -164 85 -197 102 -169 5 7 -119 329 -230 596 -18 44 -42 108 -54 143 l-22 64 95 236 c53 130 141 353 197 495 57 142 106 255 110 250 5 -4 43 -96 85 -203 42 -107 128 -323 191 -480 63 -157 114 -293 114 -302 0 -20 -22 -79 -175 -463 -57 -143 -102 -261 -100 -263 2 -2 13 -1 24 3 14 4 31 36 61 113 109 283 215 540 221 536 4 -2 21 -41 39 -86 128 -330 156 -397 163 -398 4 0 7 18 7 40 0 27 -30 114 -95 274 l-95 234 29 78 c16 44 59 154 95 245 54 133 67 176 64 210 -3 40 -9 27 -92 -182 -49 -123 -96 -240 -104 -259 l-14 -35 -55 140 c-30 77 -104 262 -163 410 -60 149 -124 313 -144 366 l-36 97 91 228 c259 652 304 762 310 756 3 -4 51 -119 105 -256 98 -246 99 -249 102 -199 2 43 -6 74 -57 199 -32 82 -73 186 -91 231 -30 76 -43 92 -81 93 -3 0 -45 -100 -93 -222 -162 -414 -298 -753 -305 -761 -6 -6 -126 284 -327 795 l-77 196 32 79 c112 268 182 456 177 469 -10 26 -30 10 -49 -37 -193 -484 -184 -463 -195 -433 -58 158 -73 198 -87 231 -9 21 -21 48 -26 61 -5 12 -13 32 -18 45 -5 12 -34 85 -64 162 -41 104 -61 143 -78 152 -13 7 -25 10 -27 8 -2 -2 8 -32 23 -67 14 -34 37 -92 51 -128 14 -36 30 -75 35 -87 5 -13 14 -34 19 -48 6 -14 14 -35 19 -47 118 -291 141 -361 133 -391 -5 -18 -59 -156 -120 -307 -61 -151 -145 -363 -187 -470 -42 -107 -78 -196 -80 -198 -1 -2 -44 102 -95 230 -50 128 -139 350 -196 493 -57 143 -104 269 -104 280 0 23 89 251 159 407 11 26 21 52 21 57 0 5 29 80 65 167 36 87 63 164 61 171 -15 39 -38 -1 -120 -209 -48 -123 -91 -232 -96 -243 -4 -11 -33 -83 -63 -160 l-55 -140 -16 40 c-9 22 -33 82 -52 135 -44 118 -125 322 -186 470 -6 14 -14 34 -18 45 -4 11 -13 34 -20 50 -14 33 -14 32 -61 155 -31 82 -53 120 -70 120 -5 0 -15 -10 -23 -22z m76 -168 c6 -14 15 -35 19 -47 13 -32 11 -28 179 -447 l151 -378 -51 -132 c-191 -485 -346 -864 -352 -858 -6 7 -169 411 -321 798 l-76 190 190 475 c104 261 194 485 200 499 10 24 11 23 31 -25 11 -28 25 -61 30 -75z m-1133 -1390 c95 -239 181 -456 192 -482 10 -26 19 -53 19 -61 0 -19 -378 -979 -390 -991 -6 -6 -12 -2 -16 10 -3 10 -91 233 -196 494 -109 274 -187 482 -184 493 15 57 390 986 396 980 4 -5 84 -204 179 -443z m759 213 c49 -125 138 -348 195 -494 l106 -266 -197 -496 c-108 -273 -199 -497 -202 -497 -3 0 -94 224 -203 499 l-198 498 180 449 c98 247 187 470 196 496 10 26 21 46 25 43 4 -2 48 -107 98 -232z m802 105 c28 -73 108 -275 177 -448 69 -173 134 -339 145 -367 l20 -53 -115 -287 c-64 -159 -153 -382 -198 -496 -45 -115 -85 -205 -89 -200 -5 7 -274 673 -369 918 l-28 71 58 144 c31 80 114 287 183 460 144 363 155 390 160 390 3 0 28 -60 56 -132z m887 -113 c47 -121 133 -336 190 -478 57 -142 103 -264 103 -270 0 -14 -25 -79 -185 -482 -68 -170 -143 -359 -166 -419 l-42 -109 -14 34 c-8 19 -53 131 -99 249 -47 118 -130 328 -186 466 l-100 252 22 63 c22 65 247 631 280 704 9 22 29 72 43 110 47 130 47 131 57 115 6 -8 49 -114 97 -235z m-2007 -1315 c106 -267 193 -490 193 -496 0 -10 -79 -211 -345 -879 -22 -55 -43 -103 -47 -108 -4 -4 -30 50 -58 120 -28 71 -117 293 -198 496 l-147 367 198 500 c109 275 202 496 205 492 4 -4 93 -225 199 -492z m690 388 c24 -62 113 -286 197 -497 l154 -384 -119 -301 c-211 -532 -277 -696 -282 -696 -3 0 -37 82 -77 183 -39 100 -126 319 -193 487 -66 168 -122 312 -122 320 -1 8 83 229 187 490 183 462 202 510 209 510 2 0 22 -51 46 -112z m923 -203 c63 -159 127 -321 142 -360 15 -38 33 -83 40 -100 7 -16 30 -74 51 -128 l38 -98 -163 -407 c-90 -224 -180 -449 -200 -499 l-37 -92 -57 142 c-31 78 -120 301 -197 495 -77 193 -140 358 -140 365 0 7 23 69 50 138 28 68 58 144 66 169 48 140 278 690 284 678 4 -7 59 -143 123 -303z"/>
 <path d="M1180 4487 c-18 -9 -38 -47 -82 -157 -58 -144 -65 -175 -40 -175 12 0 157 333 149 341 -1 2 -13 -2 -27 -9z"/>
 <path d="M5060 4481 c0 -9 21 -63 45 -116 7 -16 25 -61 40 -100 15 -38 32 -80 38 -92 11 -23 31 -30 41 -14 6 9 -106 295 -125 317 -13 15 -39 19 -39 5z"/>
 <path d="M892 4392 c-19 -13 63 -208 91 -216 12 -3 22 -4 24 -2 2 1 -8 29 -21 62 -13 32 -33 81 -43 108 -20 52 -30 61 -51 48z"/>
 <path d="M5325 4364 c-8 -20 -15 -40 -15 -45 0 -5 -4 -17 -9 -27 -28 -53 -49 -122 -37 -122 26 0 44 28 80 119 29 74 34 96 24 102 -22 14 -27 11 -43 -27z"/>
 </g>
<g id="layer103" fill="#e6e5e4" stroke="none">
 <path d="M3097 5108 c-7 -18 -96 -243 -198 -500 -101 -258 -186 -468 -189 -468 -3 0 -72 169 -154 375 -93 234 -154 375 -163 375 -7 0 -13 -6 -13 -12 0 -7 70 -188 156 -403 l156 -390 -197 -495 c-108 -272 -200 -498 -204 -503 -7 -7 -390 942 -398 988 -3 15 260 699 283 737 3 4 -5 4 -18 -1 -19 -7 -46 -65 -153 -334 -71 -179 -133 -328 -136 -332 -4 -3 -51 107 -105 244 -77 194 -103 251 -116 251 -10 0 -18 -2 -18 -4 0 -2 48 -122 106 -267 58 -145 106 -273 106 -284 0 -17 -368 -952 -391 -993 -6 -10 -71 143 -201 469 -106 266 -197 492 -202 501 -7 14 -13 15 -31 7 -33 -15 -200 -437 -195 -494 3 -36 13 -15 97 200 51 132 97 244 101 248 7 8 400 -972 400 -1000 0 -25 -391 -1005 -398 -998 -4 3 -50 115 -104 248 -84 210 -97 236 -98 200 0 -31 25 -104 90 -268 50 -124 90 -232 90 -239 0 -8 -41 -117 -90 -243 -69 -172 -90 -237 -88 -266 3 -33 15 -6 97 200 51 131 97 241 100 246 4 4 65 -139 137 -318 114 -288 144 -348 162 -331 2 3 -57 159 -133 347 -75 189 -137 350 -138 359 -1 15 391 1010 398 1010 7 0 399 -995 398 -1011 -1 -8 -69 -185 -152 -392 -83 -207 -151 -382 -151 -387 0 -6 6 -10 14 -10 9 0 66 130 162 370 81 204 151 367 155 363 3 -5 91 -222 194 -483 171 -433 206 -510 235 -510 5 0 98 226 208 501 109 276 202 497 205 492 10 -16 397 -993 397 -1001 0 -4 -20 -57 -44 -117 -31 -77 -41 -112 -33 -117 17 -10 22 -2 57 87 17 44 34 84 37 89 3 5 23 -33 43 -85 21 -52 41 -93 44 -92 4 1 11 3 16 5 6 2 -10 54 -35 117 l-46 114 197 496 c108 273 200 499 203 503 4 5 96 -217 206 -492 109 -275 202 -500 206 -500 29 0 64 74 234 504 102 258 189 476 194 484 5 10 57 -107 156 -357 116 -288 153 -371 166 -371 20 0 24 -11 -175 485 -64 159 -116 298 -116 307 0 29 393 1009 400 1001 4 -4 96 -231 204 -504 l197 -497 -141 -352 c-78 -194 -139 -355 -136 -357 18 -18 45 39 161 330 71 180 133 323 137 319 4 -4 50 -115 102 -247 82 -207 95 -234 96 -197 0 30 -25 105 -90 270 -49 126 -90 233 -90 238 0 5 41 111 90 234 70 175 90 234 88 265 -3 35 -14 13 -98 -199 -52 -130 -97 -239 -100 -241 -4 -2 -96 221 -205 496 l-199 500 17 47 c73 197 383 960 389 954 3 -4 50 -115 102 -247 83 -207 96 -234 96 -197 0 65 -164 476 -196 491 -13 5 -25 7 -27 3 -3 -4 -91 -225 -197 -492 -106 -267 -196 -489 -200 -493 -7 -8 -400 968 -400 996 0 9 47 136 105 283 58 147 103 269 101 272 -17 16 -41 -31 -125 -244 -52 -132 -97 -243 -101 -247 -4 -5 -66 139 -138 320 -118 294 -149 359 -166 342 -3 -3 57 -162 134 -354 77 -192 140 -358 140 -369 0 -31 -391 -1009 -400 -999 -4 4 -96 231 -204 503 l-196 495 156 390 c86 215 158 396 161 403 3 7 -3 12 -14 12 -15 0 -46 -69 -167 -375 -82 -207 -153 -372 -157 -368 -4 5 -95 229 -202 498 -164 414 -197 490 -215 493 -16 3 -25 -5 -35 -30z m433 -1023 c1 -15 -394 -1005 -400 -1005 -5 1 -392 967 -398 995 -3 11 377 979 395 1009 6 8 403 -975 403 -999z m-1456 -565 l196 -495 -196 -495 c-108 -272 -200 -499 -204 -503 -8 -9 -400 968 -400 996 0 28 393 1008 400 1000 4 -4 96 -231 204 -503z m687 392 c25 -64 114 -291 198 -503 l153 -386 -198 -501 c-110 -276 -201 -502 -204 -502 -6 0 -400 990 -400 1005 0 14 394 1005 400 1005 3 0 25 -53 51 -118z m993 -380 c108 -272 196 -500 196 -509 0 -27 -393 -1004 -401 -996 -4 5 -96 231 -204 503 l-196 495 187 470 c231 581 213 539 218 534 3 -2 93 -226 200 -497z m843 1 c107 -268 195 -495 196 -504 0 -9 -89 -243 -198 -519 -144 -362 -201 -497 -207 -483 -74 179 -390 982 -391 993 -1 20 393 1013 400 1006 3 -3 93 -224 200 -493z m-2103 -1074 l197 -495 -196 -495 c-108 -272 -200 -497 -204 -502 -6 -6 -381 919 -398 983 -6 24 387 1025 398 1012 4 -4 95 -230 203 -503z m1036 -494 c0 -15 -394 -1005 -400 -1005 -3 0 -94 226 -204 502 l-198 501 183 461 c100 254 191 481 202 506 l19 45 199 -500 c109 -275 199 -504 199 -510z m651 495 c106 -267 192 -490 192 -496 0 -25 -396 -1005 -403 -997 -4 4 -96 230 -203 502 l-196 494 190 481 c105 265 196 492 201 506 8 20 11 22 18 10 4 -8 95 -233 201 -500z"/>
 <path d="M1178 4483 c-11 -3 -37 -55 -78 -160 -33 -86 -58 -158 -56 -161 16 -15 38 23 94 163 34 87 61 159 60 160 -2 1 -11 0 -20 -2z"/>
 <path d="M5063 4478 c3 -7 33 -83 67 -170 45 -112 67 -155 76 -151 8 3 14 8 14 12 0 3 -26 73 -59 155 -45 117 -63 151 -81 158 -16 6 -21 5 -17 -4z"/>
 <path d="M890 4381 c0 -5 17 -51 37 -100 32 -78 56 -112 70 -97 9 9 -76 201 -91 204 -9 2 -16 -1 -16 -7z"/>
 <path d="M5301 4288 c-22 -56 -39 -103 -36 -106 14 -14 36 17 69 97 40 101 42 111 22 111 -8 0 -30 -42 -55 -102z"/>
 </g>

</svg>