<!DOCTYPE svg PUBLIC "-//W3C//DTD SVG 20010904//EN" "http://www.w3.org/TR/2001/REC-SVG-20010904/DTD/svg10.dtd">
<svg version="1.0" xmlns="http://www.w3.org/2000/svg" width="200px" height="200px" viewBox="0 0 6400 6170" preserveAspectRatio="xMidYMid meet">
<g id="layer101" fill="#010000" stroke="none">
 <path d="M255 6151 c-53 -25 -43 -26 20 -1 28 10 43 19 35 19 -8 0 -33 -8 -55 -18z"/>
 <path d="M300 6146 c-92 -32 -120 -48 -186 -108 -43 -39 -53 -45 -36 -22 11 17 46 48 77 69 30 21 55 40 55 42 0 6 -18 -5 -71 -44 -42 -29 -122 -118 -90 -98 8 4 12 4 9 -1 -45 -94 -59 -132 -56 -158 2 -17 630 -1280 1396 -2807 765 -1527 1392 -2780 1391 -2785 0 -5 -101 192 -225 438 -123 247 -226 448 -229 448 -3 0 96 -203 221 -451 124 -248 228 -449 231 -445 3 3 34 -20 68 -52 76 -69 153 -117 242 -149 59 -21 82 -24 188 -22 105 2 185 16 185 33 0 3 -16 -2 -35 -10 -66 -27 -57 -14 15 23 48 24 101 62 154 112 47 45 71 63 57 43 -21 -30 -94 -96 -161 -145 -25 -18 -25 -18 5 -1 49 28 121 92 167 147 24 29 35 46 25 38 -10 -8 -17 -9 -17 -3 0 11 19 27 32 27 3 0 10 4 15 9 5 5 2 6 -6 1 -9 -5 -12 -3 -9 6 3 8 10 14 15 14 6 0 15 4 20 9 5 5 3 6 -4 2 -20 -11 -16 -2 41 92 314 518 1258 2471 2383 4930 119 259 220 467 224 461 4 -6 7 37 6 97 0 60 -2 103 -4 97 -3 -7 -19 8 -36 35 -35 51 -108 101 -192 130 -47 16 -236 17 -2925 19 l-2875 2 -65 -23z"/>
 <path d="M6141 6166 c2 -2 18 -6 34 -10 22 -5 26 -4 15 4 -14 9 -59 15 -49 6z"/>
 <path d="M6256 6120 c28 -16 71 -50 94 -77 24 -26 38 -39 32 -27 -15 28 -93 99 -130 118 -53 27 -50 17 4 -14z"/>
 <path d="M15 5939 c-9 -17 -15 -33 -13 -35 3 -2 12 12 21 31 21 43 13 47 -8 4z"/>
 <path d="M0 5767 c0 -11 370 -747 375 -747 5 0 -362 739 -371 749 -2 2 -4 1 -4 -2z"/>
 <path d="M6352 5705 c-30 -62 -27 -71 4 -12 14 27 24 51 22 53 -3 2 -14 -17 -26 -41z"/>
 <path d="M6302 5595 c-30 -62 -27 -71 4 -12 14 27 24 51 22 53 -3 2 -14 -17 -26 -41z"/>
 <path d="M6247 5475 c-24 -50 -20 -58 4 -12 11 22 19 41 17 43 -3 2 -12 -12 -21 -31z"/>
 <path d="M6192 5355 c-30 -62 -27 -71 4 -12 14 27 24 51 22 53 -3 2 -14 -17 -26 -41z"/>
 <path d="M6137 5235 c-24 -50 -20 -58 4 -12 11 22 19 41 17 43 -3 2 -12 -12 -21 -31z"/>
 <path d="M6082 5115 c-30 -62 -27 -71 4 -12 14 27 24 51 22 53 -3 2 -14 -17 -26 -41z"/>
 <path d="M6032 5005 c-30 -62 -27 -71 4 -12 14 27 24 51 22 53 -3 2 -14 -17 -26 -41z"/>
 <path d="M5972 4875 c-30 -62 -27 -71 4 -12 14 27 24 51 22 53 -3 2 -14 -17 -26 -41z"/>
 <path d="M5912 4745 c-30 -62 -27 -71 4 -12 14 27 24 51 22 53 -3 2 -14 -17 -26 -41z"/>
 <path d="M5847 4604 c-37 -74 -33 -83 4 -10 17 32 29 60 27 62 -2 2 -16 -21 -31 -52z"/>
 <path d="M5782 4465 c-30 -62 -27 -71 4 -12 14 27 24 51 22 53 -3 2 -14 -17 -26 -41z"/>
 <path d="M5722 4335 c-30 -62 -27 -71 4 -12 14 27 24 51 22 53 -3 2 -14 -17 -26 -41z"/>
 <path d="M5662 4205 c-30 -62 -27 -71 4 -12 14 27 24 51 22 53 -3 2 -14 -17 -26 -41z"/>
 <path d="M5597 4064 c-37 -74 -33 -83 4 -10 17 32 29 60 27 62 -2 2 -16 -21 -31 -52z"/>
 <path d="M1345 3080 c245 -490 447 -890 450 -890 3 0 -195 400 -440 890 -245 490 -447 890 -450 890 -3 0 195 -400 440 -890z"/>
 <path d="M5522 3905 c-30 -62 -27 -71 4 -12 14 27 24 51 22 53 -3 2 -14 -17 -26 -41z"/>
 <path d="M5447 3744 c-37 -74 -33 -83 4 -10 17 32 29 60 27 62 -2 2 -16 -21 -31 -52z"/>
 <path d="M5377 3594 c-37 -74 -33 -83 4 -10 17 32 29 60 27 62 -2 2 -16 -21 -31 -52z"/>
 <path d="M5307 3444 c-37 -74 -33 -83 4 -10 17 32 29 60 27 62 -2 2 -16 -21 -31 -52z"/>
 <path d="M5237 3294 c-37 -74 -33 -83 4 -10 17 32 29 60 27 62 -2 2 -16 -21 -31 -52z"/>
 <path d="M5152 3114 c-18 -35 -32 -68 -32 -72 1 -4 17 24 36 62 19 37 34 70 32 72 -2 2 -18 -26 -36 -62z"/>
 <path d="M5062 2924 c-18 -35 -32 -68 -32 -72 1 -4 17 24 36 62 19 37 34 70 32 72 -2 2 -18 -26 -36 -62z"/>
 <path d="M4977 2744 c-20 -41 -37 -78 -37 -82 1 -4 19 28 41 72 22 43 39 80 37 82 -2 2 -21 -30 -41 -72z"/>
 <path d="M4872 2524 c-23 -46 -42 -88 -41 -92 0 -4 20 33 45 82 25 48 44 90 42 92 -2 2 -23 -35 -46 -82z"/>
 <path d="M4757 2284 c-20 -41 -37 -78 -37 -82 1 -4 19 28 41 72 22 43 39 80 37 82 -2 2 -21 -30 -41 -72z"/>
 <path d="M4607 1974 c-31 -63 -57 -118 -56 -122 0 -4 27 46 60 112 33 65 59 120 57 122 -2 2 -30 -48 -61 -112z"/>
 <path d="M4322 1394 c-94 -189 -170 -344 -167 -344 7 0 347 681 343 686 -2 1 -81 -152 -176 -342z"/>
 <path d="M4035 830 c-19 -38 -33 -70 -30 -70 2 0 21 32 40 70 19 39 33 70 30 70 -2 0 -21 -31 -40 -70z"/>
 <path d="M3950 670 c-11 -22 -18 -40 -15 -40 2 0 14 18 25 40 11 22 18 40 15 40 -2 0 -14 -18 -25 -40z"/>
 <path d="M3895 570 c-9 -16 -13 -30 -11 -30 3 0 12 14 21 30 9 17 13 30 11 30 -3 0 -12 -13 -21 -30z"/>
 <path d="M3845 480 c-9 -16 -13 -30 -11 -30 3 0 12 14 21 30 9 17 13 30 11 30 -3 0 -12 -13 -21 -30z"/>
 <path d="M3784 378 c-4 -7 -14 -24 -22 -38 -14 -24 -13 -24 3 -5 20 24 37 55 31 55 -3 0 -8 -6 -12 -12z"/>
 <path d="M2840 160 c45 -42 171 -130 187 -130 4 0 -21 19 -57 41 -35 23 -89 62 -120 86 l-55 45 45 -42z"/>
 <path d="M3060 15 c14 -8 32 -14 40 -14 8 0 0 6 -19 14 -42 19 -54 19 -21 0z"/>
 </g>
<g id="layer102" fill="#f6c204" stroke="none">
 <path d="M255 6151 c-53 -25 -43 -26 20 -1 28 10 43 19 35 19 -8 0 -33 -8 -55 -18z"/>
 <path d="M300 6146 c-92 -32 -120 -48 -186 -108 -43 -39 -53 -45 -36 -22 11 17 46 48 77 69 30 21 55 40 55 42 0 6 -18 -5 -71 -44 -42 -29 -122 -118 -90 -98 8 4 12 4 9 -1 -45 -94 -59 -132 -56 -158 2 -17 630 -1280 1396 -2807 765 -1527 1392 -2780 1391 -2785 0 -5 -101 192 -225 438 -123 247 -226 448 -229 448 -3 0 96 -203 221 -451 124 -248 228 -449 231 -445 3 3 34 -20 68 -52 76 -69 153 -117 242 -149 59 -21 82 -24 188 -22 105 2 185 16 185 33 0 3 -16 -2 -35 -10 -66 -27 -57 -14 15 23 48 24 101 62 154 112 47 45 71 63 57 43 -21 -30 -94 -96 -161 -145 -25 -18 -25 -18 5 -1 49 28 121 92 167 147 24 29 35 46 25 38 -10 -8 -17 -9 -17 -3 0 11 19 27 32 27 3 0 10 4 15 9 5 5 2 6 -6 1 -9 -5 -12 -3 -9 6 3 8 10 14 15 14 6 0 15 4 20 9 5 5 3 6 -4 2 -20 -11 -16 -2 41 92 314 518 1258 2471 2383 4930 119 259 220 467 224 461 4 -6 7 37 6 97 0 60 -2 103 -4 97 -3 -7 -19 8 -36 35 -35 51 -108 101 -192 130 -47 16 -236 17 -2925 19 l-2875 2 -65 -23z m3001 -907 c91 -23 185 -119 215 -218 22 -73 15 -181 -15 -239 -34 -66 -96 -128 -160 -159 -48 -24 -68 -28 -141 -28 -73 0 -93 4 -141 28 -63 30 -126 92 -161 159 -19 36 -23 58 -23 138 0 112 21 167 91 237 89 88 200 116 335 82z m-24 -906 c5 -17 184 -1120 227 -1403 67 -438 80 -553 68 -616 -24 -118 -98 -217 -204 -275 -60 -32 -68 -34 -163 -34 -90 0 -106 3 -158 28 -76 38 -151 113 -185 184 -25 54 -27 67 -26 183 0 75 9 185 22 275 58 389 258 1639 266 1660 4 12 149 11 153 -2z"/>
 <path d="M6141 6166 c2 -2 18 -6 34 -10 22 -5 26 -4 15 4 -14 9 -59 15 -49 6z"/>
 <path d="M6256 6120 c28 -16 71 -50 94 -77 24 -26 38 -39 32 -27 -15 28 -93 99 -130 118 -53 27 -50 17 4 -14z"/>
 <path d="M15 5939 c-9 -17 -15 -33 -13 -35 3 -2 12 12 21 31 21 43 13 47 -8 4z"/>
 <path d="M0 5767 c0 -11 370 -747 375 -747 5 0 -362 739 -371 749 -2 2 -4 1 -4 -2z"/>
 <path d="M6352 5705 c-30 -62 -27 -71 4 -12 14 27 24 51 22 53 -3 2 -14 -17 -26 -41z"/>
 <path d="M6302 5595 c-30 -62 -27 -71 4 -12 14 27 24 51 22 53 -3 2 -14 -17 -26 -41z"/>
 <path d="M6247 5475 c-24 -50 -20 -58 4 -12 11 22 19 41 17 43 -3 2 -12 -12 -21 -31z"/>
 <path d="M6192 5355 c-30 -62 -27 -71 4 -12 14 27 24 51 22 53 -3 2 -14 -17 -26 -41z"/>
 <path d="M6137 5235 c-24 -50 -20 -58 4 -12 11 22 19 41 17 43 -3 2 -12 -12 -21 -31z"/>
 <path d="M6082 5115 c-30 -62 -27 -71 4 -12 14 27 24 51 22 53 -3 2 -14 -17 -26 -41z"/>
 <path d="M6032 5005 c-30 -62 -27 -71 4 -12 14 27 24 51 22 53 -3 2 -14 -17 -26 -41z"/>
 <path d="M5972 4875 c-30 -62 -27 -71 4 -12 14 27 24 51 22 53 -3 2 -14 -17 -26 -41z"/>
 <path d="M5912 4745 c-30 -62 -27 -71 4 -12 14 27 24 51 22 53 -3 2 -14 -17 -26 -41z"/>
 <path d="M5847 4604 c-37 -74 -33 -83 4 -10 17 32 29 60 27 62 -2 2 -16 -21 -31 -52z"/>
 <path d="M5782 4465 c-30 -62 -27 -71 4 -12 14 27 24 51 22 53 -3 2 -14 -17 -26 -41z"/>
 <path d="M5722 4335 c-30 -62 -27 -71 4 -12 14 27 24 51 22 53 -3 2 -14 -17 -26 -41z"/>
 <path d="M5662 4205 c-30 -62 -27 -71 4 -12 14 27 24 51 22 53 -3 2 -14 -17 -26 -41z"/>
 <path d="M5597 4064 c-37 -74 -33 -83 4 -10 17 32 29 60 27 62 -2 2 -16 -21 -31 -52z"/>
 <path d="M1345 3080 c245 -490 447 -890 450 -890 3 0 -195 400 -440 890 -245 490 -447 890 -450 890 -3 0 195 -400 440 -890z"/>
 <path d="M5522 3905 c-30 -62 -27 -71 4 -12 14 27 24 51 22 53 -3 2 -14 -17 -26 -41z"/>
 <path d="M5447 3744 c-37 -74 -33 -83 4 -10 17 32 29 60 27 62 -2 2 -16 -21 -31 -52z"/>
 <path d="M5377 3594 c-37 -74 -33 -83 4 -10 17 32 29 60 27 62 -2 2 -16 -21 -31 -52z"/>
 <path d="M5307 3444 c-37 -74 -33 -83 4 -10 17 32 29 60 27 62 -2 2 -16 -21 -31 -52z"/>
 <path d="M5237 3294 c-37 -74 -33 -83 4 -10 17 32 29 60 27 62 -2 2 -16 -21 -31 -52z"/>
 <path d="M5152 3114 c-18 -35 -32 -68 -32 -72 1 -4 17 24 36 62 19 37 34 70 32 72 -2 2 -18 -26 -36 -62z"/>
 <path d="M5062 2924 c-18 -35 -32 -68 -32 -72 1 -4 17 24 36 62 19 37 34 70 32 72 -2 2 -18 -26 -36 -62z"/>
 <path d="M4977 2744 c-20 -41 -37 -78 -37 -82 1 -4 19 28 41 72 22 43 39 80 37 82 -2 2 -21 -30 -41 -72z"/>
 <path d="M4872 2524 c-23 -46 -42 -88 -41 -92 0 -4 20 33 45 82 25 48 44 90 42 92 -2 2 -23 -35 -46 -82z"/>
 <path d="M4757 2284 c-20 -41 -37 -78 -37 -82 1 -4 19 28 41 72 22 43 39 80 37 82 -2 2 -21 -30 -41 -72z"/>
 <path d="M4607 1974 c-31 -63 -57 -118 -56 -122 0 -4 27 46 60 112 33 65 59 120 57 122 -2 2 -30 -48 -61 -112z"/>
 <path d="M4322 1394 c-94 -189 -170 -344 -167 -344 7 0 347 681 343 686 -2 1 -81 -152 -176 -342z"/>
 <path d="M4035 830 c-19 -38 -33 -70 -30 -70 2 0 21 32 40 70 19 39 33 70 30 70 -2 0 -21 -31 -40 -70z"/>
 <path d="M3950 670 c-11 -22 -18 -40 -15 -40 2 0 14 18 25 40 11 22 18 40 15 40 -2 0 -14 -18 -25 -40z"/>
 <path d="M3895 570 c-9 -16 -13 -30 -11 -30 3 0 12 14 21 30 9 17 13 30 11 30 -3 0 -12 -13 -21 -30z"/>
 <path d="M3845 480 c-9 -16 -13 -30 -11 -30 3 0 12 14 21 30 9 17 13 30 11 30 -3 0 -12 -13 -21 -30z"/>
 <path d="M3784 378 c-4 -7 -14 -24 -22 -38 -14 -24 -13 -24 3 -5 20 24 37 55 31 55 -3 0 -8 -6 -12 -12z"/>
 <path d="M2840 160 c45 -42 171 -130 187 -130 4 0 -21 19 -57 41 -35 23 -89 62 -120 86 l-55 45 45 -42z"/>
 <path d="M3060 15 c14 -8 32 -14 40 -14 8 0 0 6 -19 14 -42 19 -54 19 -21 0z"/>
 </g>

</svg>